<mxfile host="app.diagrams.net" modified="2020-06-18T08:59:29.283Z" agent="5.0 (Windows)" etag="ZScgmn_ODlr6AxYG-2v7" version="13.2.6" type="github">
  <diagram id="umUKt08_b0THqYxB4QMx" name="Page-1">
    <mxGraphModel dx="1834" dy="1600" grid="1" gridSize="10" guides="1" tooltips="1" connect="1" arrows="1" fold="1" page="1" pageScale="1" pageWidth="827" pageHeight="1169" math="0" shadow="0">
      <root>
        <mxCell id="0" />
        <mxCell id="1" parent="0" />
        <mxCell id="K8WBdkXXQI6Gq19Ea8D1-14" style="edgeStyle=orthogonalEdgeStyle;rounded=0;orthogonalLoop=1;jettySize=auto;html=1;exitX=0.5;exitY=1;exitDx=0;exitDy=0;targetPerimeterSpacing=0;strokeWidth=5;" parent="1" edge="1">
          <mxGeometry relative="1" as="geometry">
            <mxPoint x="2706" y="729.9999999999998" as="sourcePoint" />
            <mxPoint x="2706" y="729.9999999999998" as="targetPoint" />
          </mxGeometry>
        </mxCell>
        <mxCell id="HmVIiVWB6kzVrAjhzofl-1" value="&lt;font style=&quot;font-size: 30px&quot;&gt;Предоставление&lt;br&gt;информации&lt;br&gt;&lt;/font&gt;" style="html=1;strokeWidth=5;" parent="1" vertex="1">
          <mxGeometry x="170" y="190" width="320" height="160" as="geometry" />
        </mxCell>
        <mxCell id="HmVIiVWB6kzVrAjhzofl-2" value="&lt;font style=&quot;font-size: 25px&quot;&gt;Клиент&lt;/font&gt;" style="endArrow=block;endFill=1;endSize=6;html=1;strokeWidth=5;entryX=0.471;entryY=1.003;entryDx=0;entryDy=0;entryPerimeter=0;" parent="1" target="HmVIiVWB6kzVrAjhzofl-1" edge="1">
          <mxGeometry x="0.0917" width="100" relative="1" as="geometry">
            <mxPoint x="321" y="1110" as="sourcePoint" />
            <mxPoint x="320" y="280" as="targetPoint" />
            <mxPoint as="offset" />
          </mxGeometry>
        </mxCell>
        <mxCell id="HmVIiVWB6kzVrAjhzofl-5" value="&lt;font&gt;&lt;font style=&quot;font-size: 25px&quot;&gt;Доступ к сотовой связи&lt;/font&gt;&lt;br&gt;&lt;/font&gt;" style="endArrow=block;endFill=1;endSize=6;html=1;strokeWidth=5;entryX=0.467;entryY=-0.006;entryDx=0;entryDy=0;entryPerimeter=0;" parent="1" target="HmVIiVWB6kzVrAjhzofl-1" edge="1">
          <mxGeometry width="100" relative="1" as="geometry">
            <mxPoint x="319" y="20" as="sourcePoint" />
            <mxPoint x="320" y="220" as="targetPoint" />
          </mxGeometry>
        </mxCell>
        <mxCell id="HmVIiVWB6kzVrAjhzofl-8" value="&lt;font&gt;&lt;font style=&quot;font-size: 25px&quot;&gt;Дата и время&lt;/font&gt;&lt;br&gt;&lt;/font&gt;" style="endArrow=block;endFill=1;endSize=6;html=1;strokeWidth=5;entryX=0;entryY=0.167;entryDx=0;entryDy=0;entryPerimeter=0;" parent="1" target="HmVIiVWB6kzVrAjhzofl-1" edge="1">
          <mxGeometry width="100" relative="1" as="geometry">
            <mxPoint x="-350" y="217" as="sourcePoint" />
            <mxPoint x="160" y="250" as="targetPoint" />
          </mxGeometry>
        </mxCell>
        <mxCell id="HmVIiVWB6kzVrAjhzofl-9" value="&lt;font&gt;&lt;font style=&quot;font-size: 25px&quot;&gt;Номер телефона&lt;/font&gt;&lt;br&gt;&lt;/font&gt;" style="endArrow=block;endFill=1;endSize=6;html=1;strokeWidth=5;entryX=0;entryY=0.5;entryDx=0;entryDy=0;" parent="1" target="HmVIiVWB6kzVrAjhzofl-1" edge="1">
          <mxGeometry width="100" relative="1" as="geometry">
            <mxPoint x="-350" y="270" as="sourcePoint" />
            <mxPoint x="160" y="289.28999999999985" as="targetPoint" />
          </mxGeometry>
        </mxCell>
        <mxCell id="HmVIiVWB6kzVrAjhzofl-10" value="&lt;font&gt;&lt;font style=&quot;font-size: 25px&quot;&gt;ФИО ребенка и родителя&lt;/font&gt;&lt;br&gt;&lt;/font&gt;" style="endArrow=block;endFill=1;endSize=6;html=1;strokeWidth=5;entryX=0;entryY=0.833;entryDx=0;entryDy=0;entryPerimeter=0;" parent="1" target="HmVIiVWB6kzVrAjhzofl-1" edge="1">
          <mxGeometry width="100" relative="1" as="geometry">
            <mxPoint x="-350" y="330" as="sourcePoint" />
            <mxPoint x="160" y="330" as="targetPoint" />
          </mxGeometry>
        </mxCell>
        <mxCell id="HmVIiVWB6kzVrAjhzofl-11" value="&lt;font style=&quot;font-size: 25px&quot;&gt;A1&lt;/font&gt;" style="text;html=1;strokeColor=none;fillColor=none;align=center;verticalAlign=middle;whiteSpace=wrap;rounded=0;" parent="1" vertex="1">
          <mxGeometry x="450" y="320" width="40" height="30" as="geometry" />
        </mxCell>
        <mxCell id="HmVIiVWB6kzVrAjhzofl-12" value="&lt;font style=&quot;font-size: 30px&quot;&gt;Предоставление&lt;br&gt;Вариантов записи&lt;br&gt;&lt;/font&gt;" style="html=1;strokeWidth=5;" parent="1" vertex="1">
          <mxGeometry x="610" y="290" width="320" height="170" as="geometry" />
        </mxCell>
        <mxCell id="HmVIiVWB6kzVrAjhzofl-20" value="&lt;font style=&quot;font-size: 20px&quot;&gt;&lt;br&gt;&lt;/font&gt;" style="endArrow=block;endFill=1;endSize=6;html=1;strokeWidth=5;entryX=0.006;entryY=0.659;entryDx=0;entryDy=0;entryPerimeter=0;" parent="1" target="HmVIiVWB6kzVrAjhzofl-12" edge="1">
          <mxGeometry x="0.6422" y="-166" width="100" relative="1" as="geometry">
            <mxPoint x="490" y="270" as="sourcePoint" />
            <mxPoint x="590" y="386" as="targetPoint" />
            <Array as="points">
              <mxPoint x="570" y="270" />
              <mxPoint x="570" y="404" />
            </Array>
            <mxPoint x="-100" y="-34" as="offset" />
          </mxGeometry>
        </mxCell>
        <mxCell id="HmVIiVWB6kzVrAjhzofl-21" value="&lt;font style=&quot;font-size: 25px&quot;&gt;A2&lt;/font&gt;" style="text;html=1;strokeColor=none;fillColor=none;align=center;verticalAlign=middle;whiteSpace=wrap;rounded=0;" parent="1" vertex="1">
          <mxGeometry x="880" y="420" width="40" height="30" as="geometry" />
        </mxCell>
        <mxCell id="HmVIiVWB6kzVrAjhzofl-22" value="&lt;span style=&quot;font-size: 25px&quot;&gt;Администратор&lt;/span&gt;" style="endArrow=block;endFill=1;endSize=6;html=1;strokeWidth=5;entryX=0.873;entryY=1.004;entryDx=0;entryDy=0;entryPerimeter=0;" parent="1" target="HmVIiVWB6kzVrAjhzofl-12" edge="1">
          <mxGeometry x="-0.384" width="100" relative="1" as="geometry">
            <mxPoint x="889" y="1110" as="sourcePoint" />
            <mxPoint x="890" y="470" as="targetPoint" />
            <mxPoint as="offset" />
          </mxGeometry>
        </mxCell>
        <mxCell id="HmVIiVWB6kzVrAjhzofl-23" value="&lt;font style=&quot;font-size: 25px&quot;&gt;Телефон&lt;/font&gt;" style="endArrow=block;endFill=1;endSize=6;html=1;strokeWidth=5;entryX=0.128;entryY=1.022;entryDx=0;entryDy=0;entryPerimeter=0;" parent="1" target="HmVIiVWB6kzVrAjhzofl-12" edge="1">
          <mxGeometry x="0.3181" width="100" relative="1" as="geometry">
            <mxPoint x="651" y="1110" as="sourcePoint" />
            <mxPoint x="690" y="470" as="targetPoint" />
            <mxPoint as="offset" />
          </mxGeometry>
        </mxCell>
        <mxCell id="HmVIiVWB6kzVrAjhzofl-25" value="&lt;font style=&quot;font-size: 30px&quot;&gt;Запись&lt;br&gt;&lt;/font&gt;" style="html=1;strokeWidth=5;" parent="1" vertex="1">
          <mxGeometry x="1080" y="410" width="320" height="130" as="geometry" />
        </mxCell>
        <mxCell id="HmVIiVWB6kzVrAjhzofl-26" value="&lt;span style=&quot;font-size: 20px&quot;&gt;&lt;br&gt;&lt;/span&gt;" style="endArrow=block;endFill=1;endSize=6;html=1;strokeWidth=5;exitX=1.006;exitY=0.646;exitDx=0;exitDy=0;exitPerimeter=0;entryX=0.001;entryY=0.637;entryDx=0;entryDy=0;entryPerimeter=0;" parent="1" source="HmVIiVWB6kzVrAjhzofl-12" target="HmVIiVWB6kzVrAjhzofl-25" edge="1">
          <mxGeometry width="100" relative="1" as="geometry">
            <mxPoint x="990.64" y="529.74" as="sourcePoint" />
            <mxPoint x="1050" y="360" as="targetPoint" />
            <Array as="points">
              <mxPoint x="1020" y="400" />
              <mxPoint x="1020" y="493" />
            </Array>
          </mxGeometry>
        </mxCell>
        <mxCell id="HmVIiVWB6kzVrAjhzofl-28" value="&lt;font style=&quot;font-size: 30px&quot;&gt;Окончательный выбор&lt;/font&gt;" style="text;html=1;strokeColor=none;fillColor=none;align=center;verticalAlign=middle;whiteSpace=wrap;rounded=0;" parent="1" vertex="1">
          <mxGeometry x="990" y="290" width="200" height="70" as="geometry" />
        </mxCell>
        <mxCell id="HmVIiVWB6kzVrAjhzofl-29" value="&lt;font style=&quot;font-size: 25px&quot;&gt;A3&lt;/font&gt;" style="text;html=1;strokeColor=none;fillColor=none;align=center;verticalAlign=middle;whiteSpace=wrap;rounded=0;" parent="1" vertex="1">
          <mxGeometry x="1350" y="500" width="40" height="30" as="geometry" />
        </mxCell>
        <mxCell id="HmVIiVWB6kzVrAjhzofl-32" value="" style="endArrow=block;endFill=1;endSize=6;html=1;strokeWidth=5;entryX=0.25;entryY=1;entryDx=0;entryDy=0;" parent="1" target="HmVIiVWB6kzVrAjhzofl-25" edge="1">
          <mxGeometry width="100" relative="1" as="geometry">
            <mxPoint x="890" y="630" as="sourcePoint" />
            <mxPoint x="1270" y="630" as="targetPoint" />
            <Array as="points">
              <mxPoint x="1160" y="630" />
            </Array>
          </mxGeometry>
        </mxCell>
        <mxCell id="HmVIiVWB6kzVrAjhzofl-33" value="" style="endArrow=block;endFill=1;endSize=6;html=1;strokeWidth=5;" parent="1" edge="1">
          <mxGeometry width="100" relative="1" as="geometry">
            <mxPoint x="650" y="750" as="sourcePoint" />
            <mxPoint x="1220" y="542" as="targetPoint" />
            <Array as="points">
              <mxPoint x="1220" y="750" />
            </Array>
          </mxGeometry>
        </mxCell>
        <mxCell id="HmVIiVWB6kzVrAjhzofl-34" value="" style="endArrow=block;endFill=1;endSize=6;html=1;strokeWidth=5;entryX=0.65;entryY=1;entryDx=0;entryDy=0;entryPerimeter=0;" parent="1" target="HmVIiVWB6kzVrAjhzofl-25" edge="1">
          <mxGeometry width="100" relative="1" as="geometry">
            <mxPoint x="330" y="850" as="sourcePoint" />
            <mxPoint x="948.0799999999999" y="630.0000000000002" as="targetPoint" />
            <Array as="points">
              <mxPoint x="1288" y="850" />
            </Array>
          </mxGeometry>
        </mxCell>
        <mxCell id="HmVIiVWB6kzVrAjhzofl-36" value="&lt;font style=&quot;font-size: 25px&quot;&gt;Эл. журнал&lt;/font&gt;" style="endArrow=block;endFill=1;endSize=6;html=1;strokeWidth=5;entryX=0.128;entryY=1.022;entryDx=0;entryDy=0;entryPerimeter=0;" parent="1" edge="1">
          <mxGeometry x="-0.2982" width="100" relative="1" as="geometry">
            <mxPoint x="1369" y="1110" as="sourcePoint" />
            <mxPoint x="1369" y="540.0000000000002" as="targetPoint" />
            <mxPoint as="offset" />
          </mxGeometry>
        </mxCell>
        <mxCell id="HmVIiVWB6kzVrAjhzofl-37" value="&lt;font style=&quot;font-size: 20px&quot;&gt;&lt;br&gt;&lt;/font&gt;" style="endArrow=block;endFill=1;endSize=6;html=1;strokeWidth=5;entryX=0.38;entryY=-0.022;entryDx=0;entryDy=0;entryPerimeter=0;" parent="1" target="HmVIiVWB6kzVrAjhzofl-12" edge="1">
          <mxGeometry x="-0.2222" y="-80" width="100" relative="1" as="geometry">
            <mxPoint x="320" y="50" as="sourcePoint" />
            <mxPoint x="800" y="270" as="targetPoint" />
            <Array as="points">
              <mxPoint x="400" y="50" />
              <mxPoint x="732" y="50" />
            </Array>
            <mxPoint as="offset" />
          </mxGeometry>
        </mxCell>
        <mxCell id="HmVIiVWB6kzVrAjhzofl-38" value="" style="endArrow=block;endFill=1;endSize=6;html=1;strokeWidth=5;entryX=0.5;entryY=1;entryDx=0;entryDy=0;" parent="1" target="HmVIiVWB6kzVrAjhzofl-12" edge="1">
          <mxGeometry width="100" relative="1" as="geometry">
            <mxPoint x="1370" y="970" as="sourcePoint" />
            <mxPoint x="1264.0000000000005" y="760" as="targetPoint" />
            <Array as="points">
              <mxPoint x="770" y="970" />
            </Array>
          </mxGeometry>
        </mxCell>
        <mxCell id="HmVIiVWB6kzVrAjhzofl-39" value="&lt;span style=&quot;font-size: 30px&quot;&gt;Желание пользователя&amp;nbsp;&lt;br&gt;записаться&lt;br&gt;&lt;/span&gt;" style="text;html=1;strokeColor=none;fillColor=none;align=center;verticalAlign=middle;whiteSpace=wrap;rounded=0;" parent="1" vertex="1">
          <mxGeometry x="500" y="100" width="200" height="100" as="geometry" />
        </mxCell>
        <mxCell id="HmVIiVWB6kzVrAjhzofl-40" value="&lt;font style=&quot;font-size: 25px&quot;&gt;&lt;div&gt;Закон РФ&lt;/div&gt;&lt;div&gt;&quot;О персональных данных&quot;&lt;/div&gt;&lt;div&gt;от 27.07.2006 N 152-ФЗ&lt;/div&gt;&lt;/font&gt;" style="endArrow=block;endFill=1;endSize=6;html=1;strokeWidth=5;entryX=0.467;entryY=-0.006;entryDx=0;entryDy=0;entryPerimeter=0;" parent="1" edge="1">
          <mxGeometry x="-0.3676" width="100" relative="1" as="geometry">
            <mxPoint x="1250" y="30" as="sourcePoint" />
            <mxPoint x="1250.4399999999996" y="409.52" as="targetPoint" />
            <mxPoint as="offset" />
          </mxGeometry>
        </mxCell>
        <mxCell id="HmVIiVWB6kzVrAjhzofl-41" value="&lt;font&gt;&lt;font style=&quot;font-size: 25px&quot;&gt;Дата и время запси&lt;/font&gt;&lt;br&gt;&lt;/font&gt;" style="endArrow=block;endFill=1;endSize=6;html=1;strokeWidth=5;" parent="1" edge="1">
          <mxGeometry width="100" relative="1" as="geometry">
            <mxPoint x="1400" y="480.00000000000006" as="sourcePoint" />
            <mxPoint x="1840" y="480" as="targetPoint" />
          </mxGeometry>
        </mxCell>
        <mxCell id="XD4ex1emkU76Hb0qvA_9-1" value="" style="endArrow=block;endFill=1;endSize=6;html=1;strokeWidth=5;entryX=0.706;entryY=1.01;entryDx=0;entryDy=0;entryPerimeter=0;" edge="1" parent="1" target="HmVIiVWB6kzVrAjhzofl-1">
          <mxGeometry width="100" relative="1" as="geometry">
            <mxPoint x="650" y="1020" as="sourcePoint" />
            <mxPoint x="930" y="730" as="targetPoint" />
            <Array as="points">
              <mxPoint x="400" y="1020" />
            </Array>
          </mxGeometry>
        </mxCell>
      </root>
    </mxGraphModel>
  </diagram>
</mxfile>
